<?xml version="1.0" encoding="UTF-8"?>
<svg xmlns="http://www.w3.org/2000/svg" version="1.1"
    width="976" height="152" 
    viewBox="0 0 976 152"
    style="shape-rendering:geometricPrecision; text-rendering:geometricPrecision; image-rendering:optimizeQuality; fill-rule:evenodd; clip-rule:evenodd"
    xmlns:xlink="http://www.w3.org/1999/xlink">
    <g>
        <path style="opacity:0.775" fill="#fefffe"
            d="M 76.5,34.5 C 78.6547,34.372 80.6547,34.872 82.5,36C 91.702,44.8707 101.202,53.3707 111,61.5C 111.333,53.1667 111.667,44.8333 112,36.5C 112.5,36 113,35.5 113.5,35C 125.5,34.3333 137.5,34.3333 149.5,35C 150.327,55.427 150.827,75.927 151,96.5C 168.667,111.5 186.333,126.5 204,141.5C 204.49,142.793 204.657,144.127 204.5,145.5C 202.345,145.628 200.345,145.128 198.5,144C 180.959,128.79 163.125,113.956 145,99.5C 144.5,79.5028 144.333,59.5028 144.5,39.5C 135.5,39.5 126.5,39.5 117.5,39.5C 117.666,49.8387 117.5,60.172 117,70.5C 116.275,71.0585 115.442,71.3918 114.5,71.5C 104.38,63.2187 94.3797,54.7187 84.5,46C 82,43.5 79.5,41 77,38.5C 76.51,37.2068 76.3433,35.8734 76.5,34.5 Z" />
    </g>
    <g>
        <path style="opacity:0.848" fill="#fdfefd"
            d="M 507.5,42.5 C 513.825,42.941 519.825,44.6076 525.5,47.5C 528.085,46.9272 529.085,45.2605 528.5,42.5C 531.167,42.5 533.833,42.5 536.5,42.5C 536.512,53.3209 531.178,57.8209 520.5,56C 517.048,54.7743 513.715,53.2743 510.5,51.5C 508.244,52.4209 507.244,54.0876 507.5,56.5C 504.833,56.5 502.167,56.5 499.5,56.5C 499.111,49.9301 501.778,45.2634 507.5,42.5 Z" />
    </g>
    <g>
        <path style="opacity:0.884" fill="#fdfefd"
            d="M 641.5,43.5 C 650.795,43.2427 659.461,45.4093 667.5,50C 673.313,54.7945 675.98,60.9612 675.5,68.5C 672.482,68.6646 669.482,68.498 666.5,68C 663.229,57.6011 656.062,52.7678 645,53.5C 635.369,52.3873 629.202,56.3873 626.5,65.5C 627.26,70.7607 630.26,73.9274 635.5,75C 647.306,77.2688 658.639,80.9355 669.5,86C 678.29,94.6572 679.79,104.491 674,115.5C 666.855,123.568 657.855,127.235 647,126.5C 627.027,128.004 615.527,119.004 612.5,99.5C 616.167,99.5 619.833,99.5 623.5,99.5C 625.023,109.856 631.023,115.689 641.5,117C 649.972,118.837 657.472,117.004 664,111.5C 667.493,106.138 667.326,100.971 663.5,96C 651.794,91.2534 639.794,87.2534 627.5,84C 615.822,76.8144 612.989,66.9811 619,54.5C 625.084,47.7068 632.584,44.0401 641.5,43.5 Z" />
    </g>
    <g>
        <path style="opacity:0.897" fill="#fdfefd"
            d="M 203.5,44.5 C 207.167,44.5 210.833,44.5 214.5,44.5C 214.5,67.8333 214.5,91.1667 214.5,114.5C 227.5,114.5 240.5,114.5 253.5,114.5C 253.5,117.5 253.5,120.5 253.5,123.5C 236.812,123.258 220.146,123.591 203.5,124.5C 203.5,97.8333 203.5,71.1667 203.5,44.5 Z" />
    </g>
    <g>
        <path style="opacity:0.812" fill="#fdfefd"
            d="M 711.5,44.5 C 716.214,44.1734 720.88,44.5067 725.5,45.5C 721.833,50.1667 718.167,54.8333 714.5,59.5C 711.572,60.4841 708.572,60.8174 705.5,60.5C 707.3,55.101 709.3,49.7676 711.5,44.5 Z" />
    </g>
    <g>
        <path style="opacity:0.916" fill="#fdfefd"
            d="M 835.5,45.5 C 838.833,45.5 842.167,45.5 845.5,45.5C 845.5,72.1667 845.5,98.8333 845.5,125.5C 842.167,125.5 838.833,125.5 835.5,125.5C 835.662,123.473 835.495,121.473 835,119.5C 826.32,128.085 816.487,129.585 805.5,124C 797.432,116.855 793.765,107.855 794.5,97C 793.552,78.6321 802.052,68.1321 820,65.5C 825.656,65.3277 830.656,66.9943 835,70.5C 835.5,62.1733 835.666,53.84 835.5,45.5 Z M 817.5,74.5 C 824.292,74.4805 830.125,76.8139 835,81.5C 835.667,90.5 835.667,99.5 835,108.5C 830.013,115.828 823.18,118.661 814.5,117C 807.464,112.251 804.464,105.584 805.5,97C 804.209,86.4032 808.209,78.9032 817.5,74.5 Z" />
    </g>
    <g>
        <path style="opacity:0.894" fill="#fdfefd"
            d="M 747.5,46.5 C 751.167,46.5 754.833,46.5 758.5,46.5C 758.5,72.8333 758.5,99.1667 758.5,125.5C 754.833,125.5 751.167,125.5 747.5,125.5C 747.5,99.1667 747.5,72.8333 747.5,46.5 Z" />
    </g>
    <g>
        <path style="opacity:0.861" fill="#fdfefd"
            d="M 772.5,46.5 C 776.167,46.5 779.833,46.5 783.5,46.5C 783.5,50.5 783.5,54.5 783.5,58.5C 779.833,58.5 776.167,58.5 772.5,58.5C 772.5,54.5 772.5,50.5 772.5,46.5 Z" />
    </g>
    <g>
        <path style="opacity:0.883" fill="#fdfefd"
            d="M 345.5,62.5 C 354.998,62.0511 362.832,65.3844 369,72.5C 370.549,75.3117 371.382,78.3117 371.5,81.5C 367.833,81.5 364.167,81.5 360.5,81.5C 360.21,77.0388 357.877,74.2055 353.5,73C 338.32,71.5058 330.653,78.5058 330.5,94C 330.547,105.857 336.214,113.024 347.5,115.5C 354.816,115.709 359.149,112.375 360.5,105.5C 364.167,105.5 367.833,105.5 371.5,105.5C 370.441,116.394 364.441,122.56 353.5,124C 331.659,126.061 320.326,116.061 319.5,94C 319.423,75.9364 328.089,65.4364 345.5,62.5 Z" />
    </g>
    <g>
        <path style="opacity:0.889" fill="#fdfefd"
            d="M 279.5,63.5 C 302.119,61.1383 313.786,71.3049 314.5,94C 312.922,118.902 299.922,128.569 275.5,123C 263.959,116.931 258.626,107.264 259.5,94C 258.613,78.5493 265.28,68.3826 279.5,63.5 Z M 282.5,72.5 C 294.151,71.6506 300.985,76.9839 303,88.5C 304.74,98.0565 302.24,106.223 295.5,113C 286.362,117.593 278.862,115.759 273,107.5C 270.098,99.2957 269.765,90.9624 272,82.5C 274.106,77.5573 277.606,74.224 282.5,72.5 Z" />
    </g>
    <g>
        <path style="opacity:0.89" fill="#fdfefd"
            d="M 391.5,63.5 C 398.175,63.3337 404.842,63.5004 411.5,64C 420.584,65.7517 425.418,71.2517 426,80.5C 426.5,94.8295 426.667,109.163 426.5,123.5C 422.833,123.5 419.167,123.5 415.5,123.5C 415.66,121.801 415.494,120.134 415,118.5C 405.924,124.511 396.09,126.011 385.5,123C 373.942,116.444 371.442,107.277 378,95.5C 383.142,90.5581 389.309,87.7248 396.5,87C 402.825,86.5005 409.158,86.3338 415.5,86.5C 416.792,79.4617 414.125,74.9617 407.5,73C 403.167,72.3333 398.833,72.3333 394.5,73C 390.078,74.2441 387.744,77.0774 387.5,81.5C 383.833,81.5 380.167,81.5 376.5,81.5C 377.172,71.8326 382.172,65.8326 391.5,63.5 Z M 398.5,95.5 C 404.167,95.5 409.833,95.5 415.5,95.5C 418.216,105.039 414.882,111.206 405.5,114C 399.669,116.229 394.002,115.895 388.5,113C 384.323,108.046 384.657,103.38 389.5,99C 392.571,97.7043 395.571,96.5377 398.5,95.5 Z" />
    </g>
    <g>
        <path style="opacity:0.88" fill="#fdfefd"
            d="M 456.5,63.5 C 464.681,62.5486 472.347,64.0486 479.5,68C 483.856,71.8775 486.189,76.7109 486.5,82.5C 483.15,82.665 479.817,82.4983 476.5,82C 473.273,74.5516 467.606,71.5516 459.5,73C 449.624,76.3963 445.29,83.3963 446.5,94C 446.752,112.111 455.418,118.444 472.5,113C 474.562,111.468 475.896,109.468 476.5,107C 479.817,106.502 483.15,106.335 486.5,106.5C 485.474,116.865 479.807,123.199 469.5,125.5C 476.423,128.434 478.589,133.434 476,140.5C 474.457,142.378 472.624,143.878 470.5,145C 465.233,146.191 459.899,146.691 454.5,146.5C 454.5,143.833 454.5,141.167 454.5,138.5C 457.85,138.665 461.183,138.498 464.5,138C 467.167,136.333 467.167,134.667 464.5,133C 462.655,131.872 460.655,131.372 458.5,131.5C 458.5,129.167 458.5,126.833 458.5,124.5C 447.684,123.523 440.517,117.857 437,107.5C 435,98.5 435,89.5 437,80.5C 440.661,71.4414 447.161,65.7747 456.5,63.5 Z" />
    </g>
    <g>
        <path style="opacity:0.883" fill="#fdfefd"
            d="M 513.5,63.5 C 520.821,63.6213 527.821,65.1213 534.5,68C 537.106,69.9384 538.939,72.4384 540,75.5C 541.44,91.7764 541.94,108.11 541.5,124.5C 537.833,124.5 534.167,124.5 530.5,124.5C 530.66,122.801 530.494,121.134 530,119.5C 521.264,125.468 511.764,126.968 501.5,124C 491.086,119.334 487.586,111.501 491,100.5C 495.217,92.9637 501.717,88.797 510.5,88C 517.156,87.2888 523.822,86.7888 530.5,86.5C 531.639,80.2687 529.305,76.102 523.5,74C 517.747,73.1492 512.08,73.4826 506.5,75C 503.976,76.883 502.642,79.383 502.5,82.5C 498.833,82.5 495.167,82.5 491.5,82.5C 491.282,76.4352 493.616,71.6018 498.5,68C 503.324,65.4599 508.324,63.9599 513.5,63.5 Z M 512.5,96.5 C 518.5,96.5 524.5,96.5 530.5,96.5C 533.216,106.039 529.882,112.206 520.5,115C 514.588,117.274 508.921,116.774 503.5,113.5C 499.298,108.672 499.632,104.172 504.5,100C 507.158,98.522 509.825,97.3554 512.5,96.5 Z" />
    </g>
    <g>
        <path style="opacity:0.884" fill="#fdfefd"
            d="M 571.5,64.5 C 593.651,62.9845 604.984,73.3179 605.5,95.5C 603.912,120.627 590.912,130.127 566.5,124C 554.959,117.931 549.626,108.264 550.5,95C 549.546,79.1531 556.546,68.9865 571.5,64.5 Z M 575.5,73.5 C 586.164,73.6656 592.331,78.999 594,89.5C 595.796,98.8198 593.63,106.986 587.5,114C 574.562,119.778 566.062,115.945 562,102.5C 559.428,92.1144 561.928,83.281 569.5,76C 571.611,75.1553 573.611,74.322 575.5,73.5 Z" />
    </g>
    <g>
        <path style="opacity:0.888" fill="#fdfefd"
            d="M 878.5,64.5 C 886.229,64.1763 893.563,65.6763 900.5,69C 902.617,70.7309 904.117,72.8976 905,75.5C 906.455,91.763 906.955,108.096 906.5,124.5C 902.833,124.5 899.167,124.5 895.5,124.5C 895.657,123.127 895.49,121.793 895,120.5C 885.869,126.415 876.035,127.915 865.5,125C 854.687,118.586 852.187,109.753 858,98.5C 862.986,93.09 869.153,89.9234 876.5,89C 882.787,87.8928 889.12,87.3928 895.5,87.5C 896.935,81.5112 894.935,77.3446 889.5,75C 883.747,74.1492 878.08,74.4826 872.5,76C 868.911,77.6742 867.245,80.5075 867.5,84.5C 863.833,84.5 860.167,84.5 856.5,84.5C 856.782,76.0611 860.782,70.2277 868.5,67C 871.952,66.1153 875.286,65.282 878.5,64.5 Z M 885.5,96.5 C 888.833,96.5 892.167,96.5 895.5,96.5C 898.289,106.327 894.956,112.827 885.5,116C 878.951,118.518 872.951,117.684 867.5,113.5C 864.533,106.268 866.867,101.435 874.5,99C 878.312,98.2045 881.979,97.3712 885.5,96.5 Z" />
    </g>
    <g>
        <path style="opacity:0.884" fill="#fdfefd"
            d="M 705.5,65.5 C 722.811,63.5545 733.644,70.8878 738,87.5C 739.066,95.9943 738.399,104.328 736,112.5C 730.939,122.452 722.773,127.452 711.5,127.5C 692.896,125.389 683.563,114.889 683.5,96C 683.456,80.1768 690.789,70.0102 705.5,65.5 Z M 709.5,74.5 C 718.713,74.8742 724.546,79.5408 727,88.5C 728.356,96.5285 727.356,104.195 724,111.5C 718.257,117.599 711.423,119.099 703.5,116C 696.16,109.509 693.327,101.343 695,91.5C 695.81,82.2027 700.644,76.536 709.5,74.5 Z" />
    </g>
    <g>
        <path style="opacity:0.888" fill="#fdfefd"
            d="M 772.5,67.5 C 776.167,67.5 779.833,67.5 783.5,67.5C 783.5,86.8333 783.5,106.167 783.5,125.5C 779.833,125.5 776.167,125.5 772.5,125.5C 772.5,106.167 772.5,86.8333 772.5,67.5 Z" />
    </g>
</svg>