<?xml version="1.0" standalone="no"?>
<!DOCTYPE svg PUBLIC "-//W3C//DTD SVG 20010904//EN" "http://www.w3.org/TR/2001/REC-SVG-20010904/DTD/svg10.dtd">
<svg version="1.0" xmlns="http://www.w3.org/2000/svg"
    width="50.000000pt" height="50.000000pt" viewBox="0 0 50.000000 50.000000"
    preserveAspectRatio="xMidYMid meet">

    <g transform="translate(0.000000,50.000000) scale(0.100000,-0.100000)"
        fill="#103260" stroke="none">
        <path
            d="M30 340 c0 -66 4 -120 8 -120 4 0 34 27 67 60 33 33 64 60 69 60 6 0
32 -21 58 -47 l48 -47 0 32 c0 31 1 32 45 32 l45 0 0 -73 c0 -70 2 -74 33
-103 73 -67 67 -79 67 135 l0 191 -220 0 -220 0 0 -120z" />
    </g>
</svg>